PathFileType	4	(X/Y/Z)	C:/Users/opensim2020/Desktop/walking_exp_matlab/subject02_walking04_straight_04.trc	
DataRate	CameraRate	NumFrames	NumMarkers	Units	OrigDataRate	OrigDataStartFrame	OrigNumFrames	
100.00	100.00	7	42	mm	100.00	3043	239	
Frame#	Time	LFHD			RFHD			LBHD			RBHD			C7			T10			CLAV			STRN			RBAK			LSHO			LUPA			LELB			LFRM			LWRA			LWRB			LFIN			RSHO			RUPA			RELB			RFRM			RWRA			RWRB			RFIN			LASI			RASI			LPSI			RPSI			LTHI			LKNE			LTIB			LANK			LHEE			LTOE			RTHI			RKNE			RTIB			RANK			RHEE			RTOE			*39			*40			*41			
		X1	Y1	Z1	X2	Y2	Z2	X3	Y3	Z3	X4	Y4	Z4	X5	Y5	Z5	X6	Y6	Z6	X7	Y7	Z7	X8	Y8	Z8	X9	Y9	Z9	X10	Y10	Z10	X11	Y11	Z11	X12	Y12	Z12	X13	Y13	Z13	X14	Y14	Z14	X15	Y15	Z15	X16	Y16	Z16	X17	Y17	Z17	X18	Y18	Z18	X19	Y19	Z19	X20	Y20	Z20	X21	Y21	Z21	X22	Y22	Z22	X23	Y23	Z23	X24	Y24	Z24	X25	Y25	Z25	X26	Y26	Z26	X27	Y27	Z27	X28	Y28	Z28	X29	Y29	Z29	X30	Y30	Z30	X31	Y31	Z31	X32	Y32	Z32	X33	Y33	Z33	X34	Y34	Z34	X35	Y35	Z35	X36	Y36	Z36	X37	Y37	Z37	X38	Y38	Z38	X39	Y39	Z39	X40	Y40	Z40	X41	Y41	Z41	X42	Y42	Z42	

120	1.190	1467.81958	-78.23952	1712.90613	1327.73096	-52.90863	1687.48071	1500.27344	58.29001	1658.01807	1363.16479	95.20215	1633.48889	1434.84729	140.07501	1512.70081	1423.22009	193.79214	1233.03638	1442.95313	3.95647	1439.62390	1435.38892	-48.46629	1270.70044	1372.75171	200.20726	1334.24634	1613.16577	66.46539	1487.38232	1699.82581	59.91645	1289.87329	1719.22681	41.01271	1149.83533	1733.97351	-12.54929	1027.25745	1708.80408	-112.24922	933.21008	1736.43896	-65.78402	916.58948	1744.34167	-108.09579	866.55701	1246.97974	70.92909	1472.91345	1166.92908	116.88628	1286.24011	1148.57751	115.10593	1140.35010	1122.47180	97.75275	1023.13678	1128.45959	52.95372	894.09436	1105.84155	104.58253	893.86066	1094.62292	71.46700	829.96362	1556.75769	-37.64312	967.44147	1306.14270	-64.11290	978.08258	1462.04138	164.86273	1012.11444	1345.82239	157.64526	1018.28284	1621.77600	58.64704	659.47455	1613.12134	97.45419	476.36072	1602.57080	250.01639	367.74133	1570.54053	388.38458	195.83847	1510.38354	416.64877	195.24110	1602.09314	323.23505	55.00573	1233.70288	-49.31231	672.68103	1281.41235	-83.59044	467.36194	1276.84924	-54.82927	279.88934	1318.73315	-43.18134	89.04743	1375.10168	-8.66033	36.44693	1307.86780	-196.18549	36.19313	1389.26904	26.72162	1788.36865	-3356.95044	2845.89893	1033.65662			 
121	1.200	1466.25452	-87.07145	1714.74084	1326.22388	-61.95499	1689.22021	1498.96350	49.57061	1659.71570	1361.52612	86.14083	1634.92566	1432.78259	130.94910	1514.27148	1420.71765	184.77191	1234.72412	1441.48645	-5.14623	1441.18237	1433.98535	-57.45753	1272.16541	1369.79370	190.42410	1335.79199	1611.25537	58.18927	1488.74304	1697.56409	53.67305	1291.01440	1715.79468	36.46641	1150.41125	1730.90710	-14.64370	1027.05591	1706.15955	-112.82673	931.05774	1733.62610	-66.01119	915.38904	1741.07764	-107.21454	864.14380	1245.43005	60.93704	1474.76953	1164.71045	106.06626	1288.12048	1146.08240	103.62547	1142.13184	1119.88281	84.62670	1025.12695	1126.19141	38.90185	896.52673	1103.40332	90.44392	895.61212	1092.16614	56.70953	832.16321	1555.56812	-45.35617	968.91345	1304.92017	-72.77925	978.65283	1459.59644	156.39497	1013.45392	1343.45178	148.77147	1020.18274	1621.35278	44.24810	660.26208	1613.09253	78.44928	476.83334	1601.43713	231.62427	370.68448	1567.23682	371.33298	200.28795	1506.61133	399.02042	198.34219	1603.30481	306.53714	60.70229	1232.47205	-55.43795	673.36743	1280.39453	-86.29741	467.19434	1276.00525	-56.82759	279.77435	1318.37964	-43.18795	88.93175	1374.89978	-8.48945	36.42233	1307.89380	-196.12474	36.23398	1387.60229	18.00826	1789.97180	-3360.21484	2845.10571	1033.78491			 
122	1.210	1464.89294	-95.82120	1716.60864	1324.79492	-70.95488	1690.92029	1497.43616	40.74426	1661.26306	1359.92651	77.03506	1636.36938	1430.81909	121.88796	1515.93921	1418.32227	175.75398	1236.41711	1440.14490	-14.15665	1442.77246	1432.79749	-66.32595	1273.58374	1367.53125	181.42340	1337.81299	1609.75977	50.18145	1490.29883	1695.43103	47.64478	1292.08655	1712.79163	32.04844	1151.12109	1728.26184	-16.56016	1027.06140	1703.53528	-113.24530	928.93457	1730.86206	-66.07750	914.22620	1737.99243	-106.08795	861.84027	1243.85974	50.69682	1476.56519	1162.53748	95.10476	1290.05444	1143.46289	92.11000	1143.82214	1117.68079	71.66010	1026.80420	1123.96130	24.74987	898.94995	1101.06750	76.67217	897.39270	1089.84204	41.57784	834.51031	1554.86401	-52.77538	970.47253	1303.88562	-81.34163	979.10461	1457.16248	148.01691	1014.71637	1341.13672	140.21013	1021.93286	1620.95337	29.95395	661.54370	1612.77954	59.38872	477.74908	1599.27490	213.01445	373.54144	1564.57288	353.53406	204.07581	1503.25928	380.48535	200.69473	1604.43616	288.41852	65.48570	1231.21497	-61.70431	674.10126	1279.11975	-88.83667	466.85266	1275.42017	-58.54810	279.62302	1318.16638	-43.22664	88.94927	1374.73499	-8.31324	36.42348	1307.84094	-195.97176	36.12180	1386.08044	9.32294	1791.55151	-3356.95337	2845.80859	1033.81775			 
123	1.220	1463.68555	-104.55377	1718.42957	1323.49463	-79.96389	1692.61523	1495.70789	31.70053	1662.71875	1358.41345	67.96079	1637.82800	1428.83508	112.98267	1517.63330	1415.98682	166.93587	1238.17432	1438.90710	-23.10142	1444.34790	1431.70386	-75.05741	1274.94885	1364.65979	171.95070	1339.56482	1608.37305	42.24094	1491.77478	1693.31396	41.68739	1293.09167	1709.94739	27.66109	1151.86133	1725.42139	-18.45494	1026.88684	1701.03894	-113.54607	926.91101	1728.21582	-65.95737	913.12891	1734.93274	-104.84290	859.63312	1242.26477	40.24175	1478.24829	1160.15186	83.89352	1291.76038	1141.02051	80.53617	1145.43738	1115.20630	58.49412	1028.73779	1121.75671	10.36577	901.38843	1098.74573	62.14225	899.12823	1087.45886	26.31392	836.81030	1554.56470	-60.11407	972.10736	1302.87341	-89.69992	979.50696	1454.69751	139.89009	1016.03497	1338.92859	131.89349	1023.63751	1620.58533	15.74614	663.14758	1612.49121	40.87132	479.44113	1596.81335	194.04211	375.87924	1561.69324	334.12491	206.10100	1500.55737	361.28180	202.29066	1605.31726	269.08121	69.45680	1229.94470	-67.61060	674.64948	1278.59644	-90.78259	466.88809	1275.26379	-59.92260	279.42725	1318.10913	-43.20584	88.93521	1374.73743	-8.18225	36.39874	1307.76965	-195.89278	36.06299	1384.67896	0.58380	1793.11646	-3360.23486	2845.13062	1033.67932			 
124	1.230	1462.58057	-113.30476	1720.18713	1322.40625	-89.08311	1694.37268	1494.70081	23.13977	1664.37402	1357.02881	58.84956	1639.30859	1427.07678	104.02943	1519.48010	1413.70105	158.20418	1239.97742	1437.72290	-31.96500	1445.87830	1430.74524	-83.68893	1276.27441	1361.87439	162.65788	1341.54541	1607.02307	34.31237	1493.11621	1690.99670	35.63163	1293.88586	1707.24719	23.32683	1152.63037	1722.81519	-20.39567	1026.89355	1698.53113	-113.58826	924.92645	1725.73804	-65.72810	912.17786	1732.08350	-103.33616	857.63104	1240.77954	29.83471	1479.95166	1157.99634	72.87020	1293.44653	1138.34241	68.88706	1147.07983	1112.39209	45.90989	1030.58350	1119.59021	-4.19031	903.83881	1096.43384	47.46477	900.89795	1085.21997	10.62247	839.18073	1554.45496	-67.40481	973.74707	1301.83875	-97.78810	979.88623	1452.36475	131.90121	1017.46820	1336.82825	123.87070	1025.31213	1620.10864	1.59284	665.07367	1611.87402	22.44143	481.36807	1594.63440	174.99442	377.85568	1559.27319	314.56824	207.47348	1497.72913	341.39612	202.50984	1605.73169	248.47823	72.70771	1228.78223	-72.90169	674.86810	1277.75110	-92.48172	466.41226	1274.96985	-60.44260	279.33151	1318.08521	-43.11411	89.10851	1374.73901	-8.09121	36.40691	1307.70483	-195.79869	36.05186	1383.25720	-8.29511	1794.57056	-3357.12305	2845.81592	1033.76416			 
125	1.240	1461.64832	-122.01035	1721.82458	1321.39832	-98.13360	1695.95935	1493.11145	14.18691	1665.75696	1355.71436	49.79425	1640.77332	1425.33679	94.99314	1521.17749	1411.47583	149.66721	1241.79614	1436.67285	-40.81385	1447.31604	1429.82703	-92.28612	1277.50647	1359.71338	154.26855	1343.82385	1605.52185	26.26074	1494.33167	1689.20972	29.98967	1294.95520	1704.77466	19.10362	1153.44434	1720.29541	-22.19821	1026.98022	1696.05042	-113.43042	922.99432	1723.38550	-65.29111	911.39166	1729.24146	-101.71011	855.76324	1239.48853	19.58140	1481.66833	1155.81091	61.67274	1295.33508	1135.44824	57.07010	1148.88245	1109.98792	32.55047	1032.42932	1117.58508	-18.96531	906.42969	1094.08691	32.13974	902.80371	1083.05176	-5.24601	841.65509	1554.44568	-74.62244	975.40332	1300.72058	-105.72726	980.34344	1450.08923	124.18724	1019.16681	1334.86475	115.87920	1026.92981	1619.66772	-12.40529	667.13965	1611.24719	4.39565	483.51160	1592.65845	156.13422	379.27588	1557.04187	294.52686	207.97832	1495.29260	321.11789	201.67000	1605.56738	226.36728	75.19844	1227.76074	-77.75188	674.97577	1276.99353	-93.97752	466.20950	1274.48389	-60.15395	279.40930	1318.27161	-43.00963	89.06097	1374.83325	-8.10195	36.45658	1307.62036	-195.76909	36.01080	1382.20850	-16.97870	1796.21033	-3360.23633	2845.10303	1033.72131			 
126	1.250	1460.90015	-130.77055	1723.37000	1320.54114	-107.31691	1697.48206	1491.96448	5.47785	1667.18982	1354.41602	40.68822	1642.16736	1423.60669	85.94164	1522.74329	1409.26990	141.28189	1243.63135	1435.71033	-49.63373	1448.66309	1428.99744	-100.71780	1278.67957	1357.28406	145.30336	1346.01270	1604.25806	18.33261	1495.56738	1687.29260	24.19415	1295.88977	1702.67151	15.18358	1154.45898	1718.01550	-23.91466	1027.12781	1693.70850	-113.12395	921.24792	1721.05347	-64.90350	910.69293	1726.62781	-99.97969	854.12402	1238.03149	9.03051	1483.29504	1153.29553	50.15393	1296.90271	1132.77051	45.17776	1150.49023	1107.70203	18.99984	1034.47058	1115.80713	-33.77038	908.81372	1091.86475	17.13689	904.73621	1080.91382	-21.29188	844.21576	1554.36414	-81.83733	977.04041	1299.53992	-113.40929	980.93420	1447.93958	116.52326	1020.99060	1333.05432	108.12142	1028.52515	1619.17078	-26.18392	669.35193	1610.49915	-13.31766	485.58569	1590.89063	137.36958	380.43823	1555.26770	273.89014	207.56952	1493.28040	300.41278	199.91789	1604.86243	202.76381	76.81252	1226.95337	-81.74301	674.83496	1276.12878	-95.71168	465.99011	1274.21973	-59.84666	279.58328	1318.42566	-43.00365	89.13262	1375.01953	-8.12730	36.51613	1307.55676	-195.76256	35.97501	1381.16638	-25.89780	1797.67822	-3357.29858	2845.89063	1033.70459			 
